<svg width="1000px" height="825px"
 viewBox="0.00 0.00 588.00 485.00" xmlns="http://www.w3.org/2000/svg" xmlns:xlink="http://www.w3.org/1999/xlink">
<g id="graph0" class="graph" transform="scale(1.0 1.0) rotate(0.0) translate(4.0 481.0)">
<polygon fill="white" stroke="transparent" points="-4,4 -4,-481 584,-481 584,4 -4,4"/>
<g id="clust2" class="cluster">
<title>cluster_ControllingDayMode</title>
<polygon fill="none" stroke="black" points="194,-8 194,-469 374,-469 374,-8 194,-8"/>
<text text-anchor="middle" x="250.49" y="-456" font-family="Arial" font-size="10.00">ControllingDayMode</text>
</g>
<g id="clust1" class="cluster">
<title>cluster_TrafficLight</title>
<polygon fill="none" stroke="black" points="8,-254 8,-469 186,-469 186,-254 8,-254"/>
<text text-anchor="middle" x="43.5" y="-456" font-family="Arial" font-size="10.00">TrafficLight</text>
</g>
<g id="clust3" class="cluster">
<title>cluster_ControllingNightMode</title>
<polygon fill="none" stroke="black" points="382,-254 382,-469 572,-469 572,-254 382,-254"/>
<text text-anchor="middle" x="441.99" y="-456" font-family="Arial" font-size="10.00">ControllingNightMode</text>
</g>
<!-- State_0470 -->
<g id="node1" class="node">
<title>State_0470</title>
<ellipse fill="black" stroke="black" cx="97" cy="-430" rx="11" ry="11"/>
</g>
<!-- State_0461 -->
<g id="node2" class="node">
<title>State_0461</title>
<path fill="lightskyblue" stroke="black" d="M160.5,-382C160.5,-382 33.5,-382 33.5,-382 27.5,-382 21.5,-376 21.5,-370 21.5,-370 21.5,-358 21.5,-358 21.5,-352 27.5,-346 33.5,-346 33.5,-346 160.5,-346 160.5,-346 166.5,-346 172.5,-352 172.5,-358 172.5,-358 172.5,-370 172.5,-370 172.5,-376 166.5,-382 160.5,-382"/>
<text text-anchor="start" x="29.61" y="-362.4" font-family="Arial" font-size="14.00">ControllingDayMode</text>
<text text-anchor="start" x="156" y="-353.6" font-family="Arial" font-size="6.00">o&#45;o</text>
</g>
<!-- State_0470&#45;&gt;State_0461 -->
<g id="edge1" class="edge">
<title>State_0470&#45;&gt;State_0461</title>
<path fill="none" stroke="black" d="M97,-419C97,-411.85 97,-401.85 97,-392.41"/>
<polygon fill="black" stroke="black" points="100.5,-392.15 97,-382.15 93.5,-392.15 100.5,-392.15"/>
</g>
<!-- State_0469 -->
<g id="node3" class="node">
<title>State_0469</title>
<path fill="lightskyblue" stroke="black" d="M165.5,-298C165.5,-298 28.5,-298 28.5,-298 22.5,-298 16.5,-292 16.5,-286 16.5,-286 16.5,-274 16.5,-274 16.5,-268 22.5,-262 28.5,-262 28.5,-262 165.5,-262 165.5,-262 171.5,-262 177.5,-268 177.5,-274 177.5,-274 177.5,-286 177.5,-286 177.5,-292 171.5,-298 165.5,-298"/>
<text text-anchor="start" x="24.71" y="-278.4" font-family="Arial" font-size="14.00">ControllingNightMode</text>
<text text-anchor="start" x="161" y="-269.6" font-family="Arial" font-size="6.00">o&#45;o</text>
</g>
<!-- State_0461&#45;&gt;State_0469 -->
<g id="edge2" class="edge">
<title>State_0461&#45;&gt;State_0469</title>
<path fill="none" stroke="black" d="M91.36,-345.61C90.21,-334.77 89.95,-320.6 90.6,-308.29"/>
<polygon fill="black" stroke="black" points="94.11,-308.33 91.4,-298.08 87.13,-307.78 94.11,-308.33"/>
</g>
<!-- State_0469&#45;&gt;State_0461 -->
<g id="edge3" class="edge">
<title>State_0469&#45;&gt;State_0461</title>
<path fill="none" stroke="black" d="M102.6,-298.08C103.78,-308.86 104.05,-323.01 103.42,-335.36"/>
<polygon fill="black" stroke="black" points="99.91,-335.37 102.64,-345.61 106.89,-335.91 99.91,-335.37"/>
</g>
<!-- State_0467 -->
<g id="node4" class="node">
<title>State_0467</title>
<ellipse fill="black" stroke="black" cx="305" cy="-430" rx="11" ry="11"/>
</g>
<!-- State_0462 -->
<g id="node5" class="node">
<title>State_0462</title>
<path fill="lightskyblue" stroke="black" d="M342.99,-382C342.99,-382 267.01,-382 267.01,-382 261.01,-382 255.01,-376 255.01,-370 255.01,-370 255.01,-358 255.01,-358 255.01,-352 261.01,-346 267.01,-346 267.01,-346 342.99,-346 342.99,-346 348.99,-346 354.99,-352 354.99,-358 354.99,-358 354.99,-370 354.99,-370 354.99,-376 348.99,-382 342.99,-382"/>
<text text-anchor="middle" x="305" y="-359.8" font-family="Arial" font-size="14.00">ShowingRed</text>
</g>
<!-- State_0467&#45;&gt;State_0462 -->
<g id="edge4" class="edge">
<title>State_0467&#45;&gt;State_0462</title>
<path fill="none" stroke="black" d="M305,-419C305,-411.85 305,-401.85 305,-392.41"/>
<polygon fill="black" stroke="black" points="308.5,-392.15 305,-382.15 301.5,-392.15 308.5,-392.15"/>
</g>
<!-- State_0463 -->
<g id="node6" class="node">
<title>State_0463</title>
<path fill="lightskyblue" stroke="black" d="M334.28,-298C334.28,-298 213.72,-298 213.72,-298 207.72,-298 201.72,-292 201.72,-286 201.72,-286 201.72,-274 201.72,-274 201.72,-268 207.72,-262 213.72,-262 213.72,-262 334.28,-262 334.28,-262 340.28,-262 346.28,-268 346.28,-274 346.28,-274 346.28,-286 346.28,-286 346.28,-292 340.28,-298 334.28,-298"/>
<text text-anchor="middle" x="274" y="-275.8" font-family="Arial" font-size="14.00">ShowingRedYellow</text>
</g>
<!-- State_0462&#45;&gt;State_0463 -->
<g id="edge5" class="edge">
<title>State_0462&#45;&gt;State_0463</title>
<path fill="none" stroke="black" d="M298.43,-345.61C294.25,-334.56 288.75,-320.03 284.04,-307.55"/>
<polygon fill="black" stroke="black" points="287.27,-306.2 280.46,-298.08 280.72,-308.68 287.27,-306.2"/>
<text text-anchor="middle" x="301" y="-319" font-family="Arial" font-size="10.00">Tick</text>
</g>
<!-- State_0465 -->
<g id="node7" class="node">
<title>State_0465</title>
<path fill="lightskyblue" stroke="black" d="M314.98,-214C314.98,-214 225.02,-214 225.02,-214 219.02,-214 213.02,-208 213.02,-202 213.02,-202 213.02,-190 213.02,-190 213.02,-184 219.02,-178 225.02,-178 225.02,-178 314.98,-178 314.98,-178 320.98,-178 326.98,-184 326.98,-190 326.98,-190 326.98,-202 326.98,-202 326.98,-208 320.98,-214 314.98,-214"/>
<text text-anchor="middle" x="270" y="-191.8" font-family="Arial" font-size="14.00">ShowingGreen</text>
</g>
<!-- State_0463&#45;&gt;State_0465 -->
<g id="edge6" class="edge">
<title>State_0463&#45;&gt;State_0465</title>
<path fill="none" stroke="black" d="M273.15,-261.61C272.62,-250.77 271.93,-236.6 271.33,-224.29"/>
<polygon fill="black" stroke="black" points="274.82,-223.9 270.83,-214.08 267.82,-224.24 274.82,-223.9"/>
<text text-anchor="middle" x="282" y="-235" font-family="Arial" font-size="10.00">Tick</text>
</g>
<!-- State_0464 -->
<g id="node8" class="node">
<title>State_0464</title>
<path fill="lightskyblue" stroke="black" d="M344.18,-130C344.18,-130 249.82,-130 249.82,-130 243.82,-130 237.82,-124 237.82,-118 237.82,-118 237.82,-106 237.82,-106 237.82,-100 243.82,-94 249.82,-94 249.82,-94 344.18,-94 344.18,-94 350.18,-94 356.18,-100 356.18,-106 356.18,-106 356.18,-118 356.18,-118 356.18,-124 350.18,-130 344.18,-130"/>
<text text-anchor="middle" x="297" y="-107.8" font-family="Arial" font-size="14.00">ShowingYellow</text>
</g>
<!-- State_0465&#45;&gt;State_0464 -->
<g id="edge7" class="edge">
<title>State_0465&#45;&gt;State_0464</title>
<path fill="none" stroke="black" d="M275.73,-177.61C279.33,-166.66 284.05,-152.31 288.14,-139.92"/>
<polygon fill="black" stroke="black" points="291.57,-140.68 291.37,-130.08 284.92,-138.49 291.57,-140.68"/>
<text text-anchor="middle" x="295" y="-151" font-family="Arial" font-size="10.00">Tick</text>
</g>
<!-- State_0464&#45;&gt;State_0462 -->
<g id="edge8" class="edge">
<title>State_0464&#45;&gt;State_0462</title>
<path fill="none" stroke="black" d="M309.24,-130.19C317.79,-142.88 328.9,-160.86 336,-178 349.32,-210.17 350.75,-219.44 355,-254 357.39,-273.41 361.3,-279.49 355,-298 349.95,-312.86 339.97,-326.97 330.25,-338.23"/>
<polygon fill="black" stroke="black" points="327.43,-336.14 323.3,-345.89 332.61,-340.84 327.43,-336.14"/>
<text text-anchor="middle" x="363" y="-235" font-family="Arial" font-size="10.00">Tick</text>
</g>
<!-- State_0468 -->
<g id="node9" class="node">
<title>State_0468</title>
<ellipse fill="black" stroke="black" cx="297" cy="-31" rx="11" ry="11"/>
<ellipse fill="none" stroke="black" cx="297" cy="-31" rx="15" ry="15"/>
</g>
<!-- State_0464&#45;&gt;State_0468 -->
<g id="edge9" class="edge">
<title>State_0464&#45;&gt;State_0468</title>
<path fill="none" stroke="black" d="M297,-93.86C297,-82.95 297,-68.65 297,-56.54"/>
<polygon fill="black" stroke="black" points="300.5,-56.2 297,-46.2 293.5,-56.2 300.5,-56.2"/>
<text text-anchor="middle" x="307" y="-67" font-family="Arial" font-size="10.00">Tick</text>
</g>
<!-- State_0459 -->
<g id="node10" class="node">
<title>State_0459</title>
<ellipse fill="black" stroke="black" cx="496" cy="-430" rx="11" ry="11"/>
</g>
<!-- State_0457 -->
<g id="node11" class="node">
<title>State_0457</title>
<path fill="lightskyblue" stroke="black" d="M543.18,-382C543.18,-382 448.82,-382 448.82,-382 442.82,-382 436.82,-376 436.82,-370 436.82,-370 436.82,-358 436.82,-358 436.82,-352 442.82,-346 448.82,-346 448.82,-346 543.18,-346 543.18,-346 549.18,-346 555.18,-352 555.18,-358 555.18,-358 555.18,-370 555.18,-370 555.18,-376 549.18,-382 543.18,-382"/>
<text text-anchor="middle" x="496" y="-359.8" font-family="Arial" font-size="14.00">ShowingYellow</text>
</g>
<!-- State_0459&#45;&gt;State_0457 -->
<g id="edge10" class="edge">
<title>State_0459&#45;&gt;State_0457</title>
<path fill="none" stroke="black" d="M496,-419C496,-411.85 496,-401.85 496,-392.41"/>
<polygon fill="black" stroke="black" points="499.5,-392.15 496,-382.15 492.5,-392.15 499.5,-392.15"/>
</g>
<!-- State_0456 -->
<g id="node12" class="node">
<title>State_0456</title>
<path fill="lightskyblue" stroke="black" d="M503.68,-298C503.68,-298 402.32,-298 402.32,-298 396.32,-298 390.32,-292 390.32,-286 390.32,-286 390.32,-274 390.32,-274 390.32,-268 396.32,-262 402.32,-262 402.32,-262 503.68,-262 503.68,-262 509.68,-262 515.68,-268 515.68,-274 515.68,-274 515.68,-286 515.68,-286 515.68,-292 509.68,-298 503.68,-298"/>
<text text-anchor="middle" x="453" y="-275.8" font-family="Arial" font-size="14.00">ShowingNothing</text>
</g>
<!-- State_0457&#45;&gt;State_0456 -->
<g id="edge11" class="edge">
<title>State_0457&#45;&gt;State_0456</title>
<path fill="none" stroke="black" d="M468.41,-345.82C462.63,-340.82 457.3,-334.84 454,-328 451.12,-322.02 449.97,-315.09 449.74,-308.42"/>
<polygon fill="black" stroke="black" points="453.24,-308.42 450.02,-298.33 446.25,-308.23 453.24,-308.42"/>
<text text-anchor="middle" x="464" y="-319" font-family="Arial" font-size="10.00">Tick</text>
</g>
<!-- State_0460 -->
<g id="node13" class="node">
<title>State_0460</title>
<ellipse fill="black" stroke="black" cx="549" cy="-280" rx="11" ry="11"/>
<ellipse fill="none" stroke="black" cx="549" cy="-280" rx="15" ry="15"/>
</g>
<!-- State_0457&#45;&gt;State_0460 -->
<g id="edge12" class="edge">
<title>State_0457&#45;&gt;State_0460</title>
<path fill="none" stroke="black" d="M507.24,-345.61C515.54,-332.78 526.86,-315.26 535.62,-301.7"/>
<polygon fill="black" stroke="black" points="538.72,-303.35 541.21,-293.06 532.84,-299.55 538.72,-303.35"/>
<text text-anchor="middle" x="535" y="-319" font-family="Arial" font-size="10.00">Tick</text>
</g>
<!-- State_0456&#45;&gt;State_0457 -->
<g id="edge13" class="edge">
<title>State_0456&#45;&gt;State_0457</title>
<path fill="none" stroke="black" d="M463.83,-298.24C467.21,-303.84 470.87,-310.12 474,-316 477.47,-322.52 480.97,-329.68 484.13,-336.41"/>
<polygon fill="black" stroke="black" points="481.11,-338.21 488.47,-345.82 487.47,-335.28 481.11,-338.21"/>
<text text-anchor="middle" x="489" y="-319" font-family="Arial" font-size="10.00">Tick</text>
</g>
</g>
</svg>
