<svg width="500px" height="915px"
 viewBox="0.00 0.00 194.48 355.00" xmlns="http://www.w3.org/2000/svg" xmlns:xlink="http://www.w3.org/1999/xlink">
<g id="graph0" class="graph" transform="scale(1.0 1.0) rotate(0.0) translate(4.0 351.0)">
<title>simple traffic light</title>
<polygon fill="white" stroke="transparent" points="-4,4 -4,-351 190.48,-351 190.48,4 -4,4"/>
<!-- State_0189 -->
<g id="node1" class="node">
<title>State_0189</title>
<ellipse fill="black" stroke="black" cx="122.39" cy="-336" rx="11" ry="11"/>
</g>
<!-- State_0185 -->
<g id="node2" class="node">
<title>State_0185</title>
<path fill="lightskyblue" stroke="black" d="M160.38,-288C160.38,-288 84.4,-288 84.4,-288 78.4,-288 72.4,-282 72.4,-276 72.4,-276 72.4,-264 72.4,-264 72.4,-258 78.4,-252 84.4,-252 84.4,-252 160.38,-252 160.38,-252 166.38,-252 172.38,-258 172.38,-264 172.38,-264 172.38,-276 172.38,-276 172.38,-282 166.38,-288 160.38,-288"/>
<text text-anchor="middle" x="122.39" y="-265.8" font-family="Arial" font-size="14.00">ShowingRed</text>
</g>
<!-- State_0189&#45;&gt;State_0185 -->
<g id="edge1" class="edge">
<title>State_0189&#45;&gt;State_0185</title>
<path fill="none" stroke="black" d="M122.39,-325C122.39,-317.85 122.39,-307.85 122.39,-298.41"/>
<polygon fill="black" stroke="black" points="125.89,-298.15 122.39,-288.15 118.89,-298.15 125.89,-298.15"/>
</g>
<!-- State_0186 -->
<g id="node3" class="node">
<title>State_0186</title>
<path fill="lightskyblue" stroke="black" d="M132.67,-204C132.67,-204 12.11,-204 12.11,-204 6.11,-204 0.11,-198 0.11,-192 0.11,-192 0.11,-180 0.11,-180 0.11,-174 6.11,-168 12.11,-168 12.11,-168 132.67,-168 132.67,-168 138.67,-168 144.67,-174 144.67,-180 144.67,-180 144.67,-192 144.67,-192 144.67,-198 138.67,-204 132.67,-204"/>
<text text-anchor="middle" x="72.39" y="-181.8" font-family="Arial" font-size="14.00">ShowingRedYellow</text>
</g>
<!-- State_0185&#45;&gt;State_0186 -->
<g id="edge2" class="edge">
<title>State_0185&#45;&gt;State_0186</title>
<path fill="none" stroke="black" d="M111.79,-251.61C104.91,-240.34 95.83,-225.45 88.13,-212.81"/>
<polygon fill="black" stroke="black" points="91,-210.8 82.81,-204.08 85.02,-214.44 91,-210.8"/>
<text text-anchor="middle" x="110.39" y="-225" font-family="Arial" font-size="10.00">Tick</text>
</g>
<!-- State_0188 -->
<g id="node4" class="node">
<title>State_0188</title>
<path fill="lightskyblue" stroke="black" d="M128.37,-120C128.37,-120 38.41,-120 38.41,-120 32.41,-120 26.41,-114 26.41,-108 26.41,-108 26.41,-96 26.41,-96 26.41,-90 32.41,-84 38.41,-84 38.41,-84 128.37,-84 128.37,-84 134.37,-84 140.37,-90 140.37,-96 140.37,-96 140.37,-108 140.37,-108 140.37,-114 134.37,-120 128.37,-120"/>
<text text-anchor="middle" x="83.39" y="-97.8" font-family="Arial" font-size="14.00">ShowingGreen</text>
</g>
<!-- State_0186&#45;&gt;State_0188 -->
<g id="edge3" class="edge">
<title>State_0186&#45;&gt;State_0188</title>
<path fill="none" stroke="black" d="M74.72,-167.61C76.18,-156.77 78.08,-142.6 79.73,-130.29"/>
<polygon fill="black" stroke="black" points="83.24,-130.46 81.1,-120.08 76.3,-129.53 83.24,-130.46"/>
<text text-anchor="middle" x="89.39" y="-141" font-family="Arial" font-size="10.00">Tick</text>
</g>
<!-- State_0187 -->
<g id="node5" class="node">
<title>State_0187</title>
<path fill="lightskyblue" stroke="black" d="M174.57,-36C174.57,-36 80.21,-36 80.21,-36 74.21,-36 68.21,-30 68.21,-24 68.21,-24 68.21,-12 68.21,-12 68.21,-6 74.21,0 80.21,0 80.21,0 174.57,0 174.57,0 180.57,0 186.57,-6 186.57,-12 186.57,-12 186.57,-24 186.57,-24 186.57,-30 180.57,-36 174.57,-36"/>
<text text-anchor="middle" x="127.39" y="-13.8" font-family="Arial" font-size="14.00">ShowingYellow</text>
</g>
<!-- State_0188&#45;&gt;State_0187 -->
<g id="edge4" class="edge">
<title>State_0188&#45;&gt;State_0187</title>
<path fill="none" stroke="black" d="M92.72,-83.61C98.71,-72.45 106.6,-57.74 113.34,-45.18"/>
<polygon fill="black" stroke="black" points="116.58,-46.55 118.22,-36.08 110.41,-43.24 116.58,-46.55"/>
<text text-anchor="middle" x="118.39" y="-57" font-family="Arial" font-size="10.00">Tick</text>
</g>
<!-- State_0187&#45;&gt;State_0185 -->
<g id="edge5" class="edge">
<title>State_0187&#45;&gt;State_0185</title>
<path fill="none" stroke="black" d="M134.61,-36.03C139.73,-48.94 146.22,-67.26 149.39,-84 153.98,-108.25 157.96,-183.79 153.39,-204 150.35,-217.43 144.19,-231.34 138.15,-242.83"/>
<polygon fill="black" stroke="black" points="134.94,-241.4 133.18,-251.84 141.07,-244.77 134.94,-241.4"/>
<text text-anchor="middle" x="165.39" y="-141" font-family="Arial" font-size="10.00">Tick</text>
</g>
</g>
</svg>
